<?xml version="1.0" encoding="UTF-8" standalone="no"?>
<svg
   width="600"
   height="600"
   viewBox="0 0 2000 2000"
   version="1.1"
   id="svg1"
   sodipodi:docname="icon.svg"
   inkscape:export-filename="icon.svg"
   inkscape:export-xdpi="96"
   inkscape:export-ydpi="96"
   inkscape:version="1.4 (86a8ad7, 2024-10-11)"
   xmlns:inkscape="http://www.inkscape.org/namespaces/inkscape"
   xmlns:sodipodi="http://sodipodi.sourceforge.net/DTD/sodipodi-0.dtd"
   xmlns="http://www.w3.org/2000/svg"
   xmlns:svg="http://www.w3.org/2000/svg">
  <sodipodi:namedview
     id="namedview1"
     pagecolor="#ffffff"
     bordercolor="#000000"
     borderopacity="0.25"
     inkscape:showpageshadow="2"
     inkscape:pageopacity="0.0"
     inkscape:pagecheckerboard="0"
     inkscape:deskcolor="#d1d1d1"
     showgrid="false"
     inkscape:zoom="1"
     inkscape:cx="90"
     inkscape:cy="329"
     inkscape:window-width="1920"
     inkscape:window-height="1018"
     inkscape:window-x="-6"
     inkscape:window-y="-6"
     inkscape:window-maximized="1"
     inkscape:current-layer="svg1" />
  <defs
     id="defs1">
    <style
       id="style1">
      .cls-1 {
        fill: none;
        stroke: #20ac00;
        stroke-width: 20px;
        fill-rule: evenodd;
      }
    </style>
  </defs>
  <path
     id="rect4-5"
     style="display:inline;fill:none;fill-opacity:1;fill-rule:evenodd;stroke:#00cc33;stroke-width:26.66666667;stroke-dasharray:none;stroke-opacity:1;stroke-dashoffset:0"
     d="m 812.60134,34.511712 a 235.94174,309.6977 0 0 0 -146.27121,89.529858 235.94174,309.6977 0 0 0 0,437.98266 l 333.6698,437.97627 333.66987,-437.97627 a 235.94174,309.6977 0 0 0 0,-437.98266 235.94174,309.6977 0 0 0 -333.66987,0 A 235.94174,309.6977 0 0 0 812.60134,34.511712 Z M 999.99993,1000.0005 1437.9766,1333.67 a 309.69795,235.94155 0 0 0 437.983,0 309.69795,235.94155 0 0 0 0,-333.6695 309.69795,235.94155 0 0 0 0,-333.6695 309.69795,235.94155 0 0 0 -437.983,0 z m 0,0 -333.6698,437.9763 a 235.94174,309.6977 0 0 0 0,437.9829 235.94174,309.6977 0 0 0 333.6698,0 235.94174,309.6977 0 0 0 333.66987,0 235.94174,309.6977 0 0 0 0,-437.9829 z m 0,0 L 562.02327,666.331 a 309.69795,235.94155 0 0 0 -437.98298,0 309.69795,235.94155 0 0 0 0,333.6695 309.69795,235.94155 0 0 0 0,333.6695 309.69795,235.94155 0 0 0 437.98298,0 z" />
</svg>
